<?xml version="1.0" standalone="no"?>
<svg
  width="600"
  height="600"
  viewBox="0 0 600 600"
  xmlns="http://www.w3.org/2000/svg"
>
  <g transform="translate(300,300)">
    <path d="M95,-123.1C130.8,-104.7,172.9,-87.3,202.3,-52.5C231.7,-17.8,248.5,34.2,239.5,82.6C230.4,131.1,195.4,176,151.2,195.6C107,215.2,53.5,209.6,-0.7,210.6C-54.9,211.5,-109.7,219,-157.1,200.4C-204.5,181.8,-244.4,137.1,-247.3,89.5C-250.1,41.9,-215.9,-8.5,-186.4,-48.6C-157,-88.7,-132.3,-118.4,-102,-138.5C-71.7,-158.7,-35.9,-169.4,-3.1,-165C29.6,-160.7,59.2,-141.4,95,-123.1Z" fill="#62fdfb" />
  </g>
</svg>
  