<?xml version="1.0" standalone="no"?>
<svg viewBox="0 0 200 200" xmlns="http://www.w3.org/2000/svg">
  <path fill="#f8f23e" d="M38.1,-60.2C50.1,-51.7,60.9,-42.2,70.4,-29.7C80,-17.2,88.4,-1.6,88.7,14.4C88.9,30.4,81,46.8,67.2,52.7C53.5,58.5,33.9,53.7,18.1,55.6C2.2,57.6,-9.9,66.3,-19.1,64.1C-28.3,61.8,-34.7,48.7,-47.4,38.5C-60.1,28.4,-79.1,21.2,-79.4,12.1C-79.6,2.9,-61.1,-8.2,-50.2,-19.1C-39.3,-30,-36.1,-40.6,-29,-51.4C-21.9,-62.1,-11,-73.1,1.1,-74.7C13.1,-76.4,26.2,-68.8,38.1,-60.2Z" transform="translate(100 100)" />
</svg>
