<svg height="512" viewBox="0 0 128 128" width="512" xmlns="http://www.w3.org/2000/svg"><g><path d="m18.758 23.826h90.484v97.867h-90.484z" fill="#ffca28"/><path d="m12.555 6.306h102.89v17.52h-102.89z" fill="#65727f"/><path d="m44.614 6.306v33.146a5.048 5.048 0 0 0 5.047 5.048h1.724a5.048 5.048 0 0 0 5.047-5.048v-3.277a5.047 5.047 0 0 1 5.047-5.047h1.721a5.048 5.048 0 0 1 5.048 5.047v29.052a5.046 5.046 0 0 0 5.052 5.047h1.231a5.047 5.047 0 0 0 5.047-5.047v-15.68a5.047 5.047 0 0 1 5.044-5.047h.985a5.047 5.047 0 0 1 5.047 5.047v.908a5.047 5.047 0 0 0 10.094 0v-44.149z" fill="#54b88b"/><path d="m12.555 31.161h6.203v10.637h-6.203z" fill="#65727f"/><path d="m109.242 31.161h6.203v10.637h-6.203z" fill="#65727f"/><g><path d="m18.758 100.054a1.749 1.749 0 0 0 1.75-1.75v-4.5a1.75 1.75 0 0 0 -3.5 0v4.5a1.749 1.749 0 0 0 1.75 1.75z"/><path d="m123.443 36.479a1.75 1.75 0 0 0 -1.75-1.75h-4.5v-3.568a1.749 1.749 0 0 0 -1.75-1.75h-4.452v-3.835h4.452a1.749 1.749 0 0 0 1.75-1.75v-3.972a1.75 1.75 0 0 0 -3.5 0v2.222h-11.193v-14.019h11.2v4.12a1.75 1.75 0 1 0 3.5 0v-5.87a1.749 1.749 0 0 0 -1.75-1.75h-102.894a1.749 1.749 0 0 0 -1.75 1.75v17.519a1.749 1.749 0 0 0 1.75 1.75h4.452v3.835h-4.452a1.749 1.749 0 0 0 -1.75 1.75v3.568h-4.5a1.75 1.75 0 0 0 -1.75 1.75v6.184a51.524 51.524 0 0 0 12.452 33.619v8.866a1.75 1.75 0 0 0 3.5 0v-5.162a51.57 51.57 0 0 0 35.812 14.441h15.36a51.57 51.57 0 0 0 35.812-14.441v39.957h-86.984v-13.4a1.75 1.75 0 0 0 -3.5 0v15.152a1.749 1.749 0 0 0 1.75 1.75h90.484a1.749 1.749 0 0 0 1.75-1.75v-45.413a51.524 51.524 0 0 0 12.451-33.619zm-9.749-3.568v7.137h-2.7v-7.137zm-14.694 17.544a3.3 3.3 0 0 1 -6.594 0v-.908a6.805 6.805 0 0 0 -6.8-6.8h-.984a6.8 6.8 0 0 0 -6.8 6.8v15.681a3.3 3.3 0 0 1 -3.3 3.3h-1.222a3.3 3.3 0 0 1 -3.3-3.3v-29.053a6.8 6.8 0 0 0 -6.8-6.8h-1.721a6.8 6.8 0 0 0 -6.8 6.8v3.277a3.3 3.3 0 0 1 -3.3 3.3h-1.718a3.3 3.3 0 0 1 -3.3-3.3v-31.395h45.271v12.576a1.75 1.75 0 0 0 3.5 0v-12.576h3.868zm-84.694-42.398h28.558v14.019h-28.558zm0 24.854h2.7v7.137h-2.7zm-6.249 9.752v-4.434h2.749v3.571a1.749 1.749 0 0 0 1.75 1.75h4.452v27.059a47.986 47.986 0 0 1 -8.951-27.946zm63.623 48.264h-15.36a48.149 48.149 0 0 1 -35.812-15.947v-49.4h22.356v13.872a6.805 6.805 0 0 0 6.8 6.8h1.724a6.805 6.805 0 0 0 6.8-6.8v-3.277a3.3 3.3 0 0 1 3.3-3.3h1.712a3.3 3.3 0 0 1 3.3 3.3v29.053a6.8 6.8 0 0 0 6.8 6.8h1.23a6.8 6.8 0 0 0 6.8-6.8v-15.681a3.3 3.3 0 0 1 3.3-3.3h.984a3.3 3.3 0 0 1 3.3 3.3v.908a6.8 6.8 0 0 0 13.594 0v-24.879h4.994v49.4a48.149 48.149 0 0 1 -35.822 15.951zm48.263-48.264a47.986 47.986 0 0 1 -8.951 27.946v-27.061h4.452a1.749 1.749 0 0 0 1.75-1.75v-3.569h2.749z"/><path d="m93.382 26.718a1.749 1.749 0 0 0 -1.75 1.75v3.37a1.75 1.75 0 0 0 3.5 0v-3.37a1.749 1.749 0 0 0 -1.75-1.75z"/><path d="m70.673 112.974a1.75 1.75 0 0 0 0-3.5h-41.259a1.75 1.75 0 0 0 0 3.5z"/><path d="m89.269 112.974a1.75 1.75 0 0 0 0-3.5h-8.318a1.75 1.75 0 0 0 0 3.5z"/></g></g></svg>