<svg height="511pt" viewBox="0 -20 511.999 511" width="511pt" xmlns="http://www.w3.org/2000/svg"><path d="M254.785 10.527C119.48 11.18 10 121.067 10 256.523c0 .696.004 1.387.008 2.082.312 37.32 30.648 67.415 67.972 67.415h141.293c.82-14.512 10.051-26.766 22.895-31.98l11.602-37.517H89.53c-17.547 0-30.793-15.808-27.867-33.109C77.41 130.32 158.426 59.418 256 59.418s178.59 70.902 194.336 163.996c2.926 17.3-10.32 33.106-27.867 33.106H294.613l-10.8 47.539c5.16 5.957 8.44 13.582 8.914 21.96h141.296c37.391 0 67.684-30.203 67.97-67.59.007-.816.007-1.636.007-2.456C501.703 120.28 390.477 9.867 254.785 10.527zm0 0" fill="#9bdcff"/><path d="M304.668 143.496c8.227 2.203 13.238 10.512 11.352 18.813l-21.407 94.214H422.47c17.547 0 30.793-15.808 27.867-33.109C434.59 130.32 353.574 59.418 256 59.418S77.41 130.32 61.664 223.414c-2.926 17.3 10.32 33.106 27.867 33.106H253.77l31.664-102.403c2.515-8.133 11.011-12.824 19.234-10.62zm0 0" fill="#d4ffff"/><path d="M298.613 401.852h-85.226c-16.293 0-29.504 13.21-29.504 29.503s13.21 29.5 29.504 29.5h85.226c16.293 0 29.504-13.207 29.504-29.5s-13.21-29.503-29.504-29.503zm0 0" fill="#6ab6ff"/><path d="M283.813 304.063c3.156-13.899 29.039-127.805 32.207-141.754 1.886-8.301-3.125-16.61-11.352-18.813-8.223-2.203-16.719 2.488-19.234 10.621l-43.266 139.918c14.316-5.812 31.113-2.133 41.645 10.028zm0 0" fill="#78ffa9"/><path d="M219.273 326.02a37.844 37.844 0 00-.062 2.109c0 20.32 16.469 36.793 36.789 36.793 31.668 0 48.223-37.297 27.813-60.86-21.602-24.94-62.684-10.89-64.54 21.958zm0 0" fill="#ffe671"/><path d="M246 113.602c0 5.523 4.477 10 10 10s10-4.477 10-10v-20.98c0-5.52-4.477-10-10-10s-10 4.48-10 10zm-84.34 10.875c-4.008-3.797-10.336-3.625-14.137.382-3.796 4.012-3.625 10.34.383 14.137l15.23 14.43c4.009 3.797 10.337 3.629 14.137-.383 3.801-4.008 3.63-10.336-.382-14.137zm187.203 28.949l15.23-14.43c4.009-3.797 4.18-10.129.384-14.137-3.801-4.007-10.13-4.18-14.137-.382l-15.23 14.43c-4.012 3.796-4.184 10.128-.383 14.136 3.804 4.016 10.132 4.176 14.136.383zm-226.605 54.199h-21.852c-5.523 0-10 4.477-10 10 0 5.52 4.477 10 10 10h21.852c5.523 0 10-4.48 10-10 0-5.523-4.477-10-10-10zm267.484 20h21.856c5.52 0 10-4.48 10-10 0-5.523-4.48-10-10-10h-21.856c-5.523 0-10 4.477-10 10 0 5.52 4.477 10 10 10zm-91.129 164.23h-85.226c-21.782 0-39.504 17.72-39.504 39.5s17.722 39.504 39.504 39.504h85.226c21.782 0 39.504-17.722 39.504-39.504s-17.722-39.5-39.504-39.5zm0 59.004h-85.226c-10.754 0-19.504-8.75-19.504-19.504 0-10.753 8.75-19.5 19.504-19.5h85.226c10.754 0 19.504 8.747 19.504 19.5 0 10.754-8.75 19.504-19.504 19.504zM220.688 56.918c-4.481-4.48-11.989-3.64-15.38 1.531-4.453 6.692.422 15.551 8.32 15.551 8.782 0 13.419-10.723 7.06-17.082zm0 0"/><path d="M436.227 75.04c-100.954-100.247-262.422-98.813-361.66.878C25.964 124.738-.552 189.715.006 258.688c.356 42.64 35.333 77.332 77.973 77.332h131.907c3.761 22.054 23.004 38.902 46.113 38.902s42.348-16.848 46.11-38.902h131.91c42.668 0 77.644-34.77 77.972-77.508.547-68.23-25.781-133.84-75.765-183.473zm-141.239 82.03c2.102-6.797 12.258-4.5 11.383 2.446-.07.562 1.176-5.078-28.844 127.074a46.85 46.85 0 00-20.968-5.25c2.593-8.375 31.773-102.742 38.43-124.27zM256 354.922c-15.328 0-27.648-12.942-26.742-28.336.933-16.48 16.508-28.219 32.601-24.594 10.38 2.332 18.286 10.586 20.375 20.703 3.426 16.672-9.328 32.227-26.234 32.227zm178.023-38.902h-132.82a46.849 46.849 0 00-6.601-14.32l7.996-35.177h119.87a38.155 38.155 0 0029.2-13.554c7.312-8.649 10.418-20.031 8.527-31.223-8.062-47.672-32.87-91.3-69.851-122.848C352.94 66.988 305.23 49.418 256 49.418c-5.523 0-10 4.477-10 10s4.477 10 10 10c44.477 0 87.578 15.871 121.363 44.695 33.418 28.508 55.832 67.918 63.114 110.969a18.407 18.407 0 01-4.086 14.977 18.18 18.18 0 01-13.922 6.464H307.14c19.199-86.203 19.691-82.816 19.226-89.57-1.488-21.547-27.394-31.719-43.219-17.281a25.808 25.808 0 00-7.27 11.492L246.39 246.52H89.53c-11.34 0-19.902-10.23-18.008-21.438 10.368-61.3 50.473-113.281 107.278-139.047 5.027-2.285 7.258-8.21 4.976-13.238s-8.207-7.258-13.238-4.977C107.672 96.336 63.285 153.88 51.805 221.746 47.844 245.188 65.84 266.52 89.53 266.52h150.68l-6.297 20.363c-11.45 6.144-19.816 16.777-23.117 29.137H77.98c-31.703 0-57.707-25.793-57.972-57.5-.543-61.856 22.8-122.352 68.734-168.493C180.176-1.828 329.004-3.25 422.137 89.23 467.05 133.832 491.863 193.055 492 255.984c.043 36.012-27.621 60.036-57.977 60.036zm0 0"/></svg>