<?xml version="1.0"?>
<svg xmlns="http://www.w3.org/2000/svg" xmlns:xlink="http://www.w3.org/1999/xlink" xmlns:svgjs="http://svgjs.com/svgjs" version="1.1" width="512" height="512" x="0" y="0" viewBox="0 0 512 512" style="enable-background:new 0 0 512 512" xml:space="preserve" class=""><g><g xmlns="http://www.w3.org/2000/svg"><path d="m241 283h30v114h-30z" fill="#19f9c8" data-original="#393d9d" style="" class=""/><path d="m256 283h15v114h-15z" fill="#19f9c8" data-original="#182084" style="" class=""/><path d="m211 283v63c0 8.28-6.72 15-15 15h-120v36h-30v-51c0-8.28 6.72-15 15-15h120v-48z" fill="#19f9c8" data-original="#393d9d" style="" class=""/><path d="m466 346v51h-30v-36h-120c-8.28 0-15-6.72-15-15v-63h30v48h120c8.28 0 15 6.72 15 15z" fill="#19f9c8" data-original="#182084" style="" class=""/><path d="m105 392h-90c-8.284 0-15 6.716-15 15v90c0 8.284 6.716 15 15 15h90c8.284 0 15-6.716 15-15v-90c0-8.284-6.716-15-15-15z" fill="#19f9c8" data-original="#fdbf00" style="" class=""/><path d="m301 392h-90c-8.284 0-15 6.716-15 15v90c0 8.284 6.716 15 15 15h90c8.284 0 15-6.716 15-15v-90c0-8.284-6.716-15-15-15z" fill="#19f9c8" data-original="#fdbf00" style="" class=""/><path d="m316 407v90c0 8.28-6.72 15-15 15h-45v-120h45c8.28 0 15 6.72 15 15z" fill="#19f9c8" data-original="#ff9100" style="" class=""/><path d="m497 392h-90c-8.284 0-15 6.716-15 15v90c0 8.284 6.716 15 15 15h90c8.284 0 15-6.716 15-15v-90c0-8.284-6.716-15-15-15z" fill="#19f9c8" data-original="#ff9100" style="" class=""/><path d="m447.292 216.266c0-44.686-40.577-78.833-85.051-70.481 23.172-72.039-30.67-145.785-106.241-145.785-68.367 0-120.667 60.916-110.294 128.623-45.006-.703-80.998 35.564-80.998 79.672 0 44.02 35.685 79.705 79.705 79.705h231.675v-.013c39.372-.287 71.204-32.282 71.204-71.721z" fill="#19f9c8" data-original="#edf5ff" style="" class=""/><path d="m447.29 216.27c0 39.44-31.83 71.43-71.2 71.72v.01h-120.09v-288c75.57 0 129.41 73.75 106.24 145.79 44.47-8.36 85.05 25.79 85.05 70.48z" fill="#19f9c8" data-original="#d5e8fe" style="" class=""/></g></g></svg>
