<svg width="720" height="720" viewBox="0 0 720 720" fill="none" xmlns="http://www.w3.org/2000/svg">
<path fill-rule="evenodd" clip-rule="evenodd" d="M351.291 29.6058C393.766 21.9185 444.364 -17.7001 478.065 9.29836C518.436 41.6412 472.4 127.277 513.085 159.224C558.414 194.817 639.073 134.973 684.033 171.03C719.268 199.288 690.131 260.08 694.887 305.025C699.695 350.459 735.193 400.155 712.471 439.778C687.236 483.783 612.526 471.105 578.224 508.461C548.149 541.213 561.057 597.602 534.675 633.402C506.503 671.63 469.898 714.291 422.726 719.465C374.434 724.762 329.544 689.656 290.935 660.137C257.056 634.234 253.814 573.661 213.581 559.556C158.377 540.204 80.0788 614.895 40.0609 572.19C2.85889 532.49 77.8684 469.205 77.906 414.77C77.9323 376.716 50.4408 344.704 40.2432 308.045C27.147 260.965 -19.0513 206.318 8.7441 166.142C39.0916 122.278 115.328 153.81 163.192 130.336C196.493 114.004 208.416 69.6938 241.114 52.1834C274.453 34.3298 314.085 36.3396 351.291 29.6058Z" fill="#FFF100"/>
</svg>
