<svg height="628" viewBox="0 0 471.916 471" width="628" xmlns="http://www.w3.org/2000/svg"><path d="M454.3 408.156a32.915 32.915 0 019.677 23.301 32.902 32.902 0 01-9.676 23.3c-12.309 12.294-32.051 12.907-45.102 1.4-.5-.5-1-.9-1.5-1.4l-99.5-99.5 23.403-23.398 23.199-23.203zm0 0" fill="#00acea"/><path d="M177.5 8.457c93.61 0 169.5 75.84 169.5 169.402 0 93.559-75.89 169.399-169.5 169.399S8 271.418 8 177.859C8 84.297 83.89 8.457 177.5 8.457zm125.7 169.402c.054-69.437-56.2-125.765-125.634-125.8-69.433-.04-125.746 56.23-125.765 125.668-.02 69.433 56.265 125.73 125.699 125.73 69.395.031 125.672-56.203 125.7-125.598zm0 0" fill="#fedb41"/><path d="M303.2 177.86c0-69.368-56.278-125.602-125.7-125.602S51.8 108.492 51.8 177.859s56.278 125.598 125.7 125.598 125.7-56.23 125.7-125.598zm0 0" fill="#00efd1"/><g fill="#083863"><path d="M360.457 303c-3.125-3.125-8.191-3.125-11.312 0l-17.543 17.543-23.106-23.098A176.655 176.655 0 00355 177.86C355 80.04 275.375.457 177.5.457S0 80.039 0 177.859c0 97.817 79.625 177.399 177.5 177.399a176.868 176.868 0 00119.68-46.508l23.11 23.11-17.743 17.742a7.997 7.997 0 000 11.312l99.5 99.5c.351.352.7.672 1.055.988.148.133.3.266.445.414.101.098.203.196.308.293 16.575 14.641 41.778 13.48 56.934-2.62 15.152-16.106 14.785-41.333-.832-56.989zM177.5 339.258c-89.05 0-161.5-72.399-161.5-161.399S88.45 16.457 177.5 16.457 339 88.859 339 177.859s-72.45 161.399-161.5 161.399zm271.07 109.914c-9.265 9.176-24.03 9.676-33.898 1.148a35.42 35.42 0 00-.867-.808c-.149-.133-.301-.262-.45-.41l-93.843-93.844 35.289-35.285 93.8 93.8c9.77 9.782 9.758 25.633-.03 35.399zm0 0"/><path d="M177.5 44.258c-73.723 0-133.7 59.933-133.7 133.601 0 73.664 59.977 133.598 133.7 133.598s133.7-59.93 133.7-133.598S251.222 44.258 177.5 44.258zm0 251.199c-64.898 0-117.7-52.754-117.7-117.598S112.603 60.258 177.5 60.258s117.7 52.754 117.7 117.601c0 64.844-52.802 117.598-117.7 117.598zm0 0"/><path d="M236.578 138.664l-34.941 21.484-38.192-14.535a7.992 7.992 0 00-7.93 1.246 8.004 8.004 0 00-2.855 7.5 8.006 8.006 0 005.094 6.207l26.687 10.16-52.8 32.47-12.672-13.137a8.002 8.002 0 00-11.313-.207 8.002 8.002 0 00-.203 11.312l17.137 17.766a8.001 8.001 0 009.95 1.257l110.417-67.898a7.999 7.999 0 10-8.379-13.629zm0 0"/></g></svg>