<?xml version="1.0"?><svg width="640" height="480" xmlns="http://www.w3.org/2000/svg" clip-rule="evenodd">
 <title>blue splat 1</title>
 <g>
  <title>Layer 1</title>
  <g id="Layer_x0020_1">
   <metadata fill="#ffff00" id="CorelCorpID_0Corel-Layer"/>
   <path d="m195.505188,172.017838c7.665695,-18.40358 23.803741,-33.238876 46.331604,-33.238876c-3.709808,-13.859634 8.887878,-25.867714 21.606506,-22.860664c12.719177,3.00705 18.066101,23.479256 6.124725,30.58268c3.741913,2.265518 7.183533,4.97699 10.253632,8.058472c37.118744,-10.521881 52.414978,37.689743 14.688019,48.952133c-2.398804,13.453491 -9.161224,23.64151 -18.220093,30.55426c6.061676,0.237213 12.259735,9.9617 9.479034,16.326187c206.904083,-138.161392 323.847595,-269.735538 340.873962,-248.418959c17.026367,21.31657 -101.012695,83.559424 -258.414703,207.982054c-18.153503,23.191406 -30.070129,36.483612 -39.369843,54.592667c0.950928,0.303314 1.640228,1.194244 1.640228,2.245331c0,1.301239 -1.055206,2.356476 -2.356445,2.356476c-0.499756,0 -0.963226,-0.156097 -1.344116,-0.421173c-2.689758,5.698914 -5.166077,11.936768 -7.528748,19.114624c7.035248,3.312988 16.690491,9.292999 21.955872,14.890106c3.820343,-11.773468 19.808594,-12.302643 25.92865,-2.376587c6.120026,9.925995 -2.514557,22.047272 -13.956268,20.835938c5.796539,13.908203 6.191315,30.12381 1.593689,44.438751c4.390442,2.838562 2.090851,6.945313 -2.708374,6.885895c-11.407074,24.232666 -37.825684,34.938507 -63.031433,31.985718c-20.97757,42.044525 -62.429901,72.793091 -125.516098,73.38324c-90.172997,0.843384 -161.480438,-79.222717 -163.307708,-163.307678c-1.3255,-60.988144 33.264702,-117.805466 89.098121,-140.470795c-16.701355,-19.825729 -2.970894,-52.086357 24.242485,-52.086357c21.737228,0 36.703278,21.79409 30.06752,41.707649c17.548309,-0.003143 35.196869,2.830322 51.870819,8.289429l-0.001038,-0.000519zm166.249634,43.079636c-17.97879,22.515472 -32.999115,44.264587 -44.146759,61.495605c9.973083,-17.670807 21.978546,-38.246841 32.527313,-52.181946c3.893829,-3.142975 7.76593,-6.245605 11.619446,-9.31366zm-18.149323,14.601715c-11.37915,9.257355 -22.912354,18.831451 -34.561279,28.728027c5.364044,12.2034 -4.283417,22.369202 -10.439667,25.001129c2.921783,0.098114 5.791412,0.40152 8.595337,0.89447c9.032562,-14.418732 21.560486,-33.695129 36.405609,-54.623627zm125.170441,4.873093c5.633728,0.103867 9.47644,2.661346 11.804932,6.902466c1.862,-6.515381 7.367584,-11.160599 14.621918,-11.160599c20.721771,0 23.799652,33.731354 1.824188,33.731354c-5.93399,0 -11.490814,-3.735718 -14.588226,-8.860458c-1.613892,4.746994 -6.072601,7.949387 -12.370392,7.949387c-17.563293,0 -19.948212,-28.906326 -1.292419,-28.562149zm-12.184326,78.898758c21.268005,0 21.268005,32.59082 0,32.59082c-21.267487,0 -21.267487,-32.59082 0,-32.59082zm-49.346405,74.933533c21.268005,0 21.268005,32.590851 0,32.590851c-21.268005,0 -21.268005,-32.590851 0,-32.590851zm79.56424,-108.140411c0,8.38092 -12.536713,7.835236 -12.536713,-0.114716c0,-9.206665 12.536713,-7.587158 12.536713,0.114716zm-122.972046,-34.231049c6.36087,0 6.36087,9.747742 0,9.747742c-6.36087,0 -6.36087,-9.747742 0,-9.747742zm63.206085,-13.554733c0,10.137375 -15.535004,10.137375 -15.535004,0c0,-10.137924 15.535004,-10.137924 15.535004,0zm-44.168457,-103.719482c10.137909,0 10.137909,15.534988 0,15.534988c-10.13739,0 -10.13739,-15.534988 0,-15.534988zm-40.120605,-28.535805c8.280609,11.784828 5.320587,24.651268 -5.131012,28.662895c-10.45105,4.011658 -24.118958,-5.231194 -25.791748,-15.505524c-39.916504,-42.70549 35.841827,-69.262592 30.92276,-13.157372zm-109.594604,-7.712723c10.137909,0 10.137909,15.535004 0,15.535004c-10.137405,0 -10.137405,-15.535004 0,-15.535004z" fill="#ffff00" id="Blood_x0020_Stain"/>
  </g>
 </g>
</svg>