<svg width="640" height="480" xmlns="http://www.w3.org/2000/svg" clip-rule="evenodd"><path d="M195.505 172.018c7.666-18.404 23.804-33.239 46.332-33.239-3.71-13.86 8.888-25.868 21.606-22.86 12.72 3.006 18.066 23.479 6.125 30.582a53.85 53.85 0 0110.254 8.058c37.118-10.521 52.415 37.69 14.688 48.953-2.4 13.453-9.162 23.641-18.22 30.554 6.061.237 12.26 9.962 9.479 16.326C492.673 112.231 609.616-19.344 626.643 1.973c17.026 21.317-101.013 83.56-258.415 207.982-18.154 23.192-30.07 36.484-39.37 54.593a2.357 2.357 0 11-2.06 4.18c-2.69 5.7-5.166 11.937-7.529 19.115 7.035 3.313 16.69 9.293 21.956 14.89 3.82-11.773 19.808-12.302 25.928-2.376 6.12 9.926-2.514 22.047-13.956 20.836 5.797 13.908 6.192 30.123 1.594 44.438 4.39 2.839 2.09 6.946-2.708 6.886-11.408 24.233-37.826 34.939-63.032 31.986-20.977 42.044-62.43 72.793-125.516 73.383C73.362 478.73 2.055 398.663.227 314.578c-1.325-60.988 33.265-117.805 89.098-140.47-16.701-19.826-2.97-52.087 24.243-52.087 21.737 0 36.703 21.794 30.067 41.708 17.549-.003 35.197 2.83 51.871 8.29v-.001zm166.25 43.08c-17.979 22.515-33 44.264-44.147 61.495 9.973-17.67 21.979-38.247 32.527-52.182a2223.42 2223.42 0 0111.62-9.314zm-18.15 14.601a2109.533 2109.533 0 00-34.56 28.728c5.363 12.204-4.284 22.37-10.44 25.001 2.921.098 5.791.402 8.595.895 9.032-14.419 21.56-33.695 36.405-54.624zm125.17 4.873c5.635.104 9.477 2.662 11.806 6.903 1.862-6.516 7.367-11.16 14.622-11.16 20.722 0 23.8 33.73 1.824 33.73-5.934 0-11.49-3.735-14.588-8.86-1.614 4.747-6.073 7.95-12.37 7.95-17.564 0-19.949-28.907-1.293-28.563zm-12.183 78.899c21.268 0 21.268 32.59 0 32.59s-21.268-32.59 0-32.59zm-49.347 74.934c21.268 0 21.268 32.59 0 32.59s-21.268-32.59 0-32.59zm79.564-108.14c0 8.38-12.536 7.834-12.536-.116 0-9.206 12.536-7.587 12.536.115zm-122.972-34.232c6.361 0 6.361 9.748 0 9.748-6.36 0-6.36-9.748 0-9.748zm63.206-13.555c0 10.138-15.535 10.138-15.535 0s15.535-10.138 15.535 0zm-44.168-103.72c10.138 0 10.138 15.536 0 15.536-10.137 0-10.137-15.535 0-15.535zm-40.12-28.535c8.28 11.785 5.32 24.651-5.132 28.663-10.45 4.012-24.119-5.231-25.791-15.506-39.917-42.705 35.841-69.262 30.922-13.157zM233.16 92.51c10.138 0 10.138 15.535 0 15.535s-10.138-15.535 0-15.535z" fill="#ff0"/></svg>